<?xml version="1.0" standalone="no"?>
<!DOCTYPE svg PUBLIC "-//W3C//DTD SVG 20010904//EN"
 "http://www.w3.org/TR/2001/REC-SVG-20010904/DTD/svg10.dtd">
<svg version="1.0" xmlns="http://www.w3.org/2000/svg"
 width="900.000000pt" height="900.000000pt" viewBox="0 0 900.000000 900.000000"
 preserveAspectRatio="xMidYMid meet">
<metadata>
Created by potrace 1.10, written by Peter Selinger 2001-2011
</metadata>
<g transform="translate(0.000000,900.000000) scale(0.100000,-0.100000)"
fill="#10b981" stroke="none">
<path d="M4430 6899 c-49 -8 -132 -14 -311 -24 -31 -1 -71 -7 -90 -13 -85 -26
-107 -31 -144 -37 -22 -4 -56 -12 -75 -19 -19 -8 -53 -19 -75 -26 -79 -24
-224 -93 -335 -159 -123 -73 -273 -206 -375 -333 -19 -23 -39 -48 -44 -54 -33
-41 -101 -148 -101 -159 0 -8 -4 -16 -9 -20 -9 -5 -39 -64 -55 -105 -3 -8 -10
-22 -15 -30 -6 -8 -24 -53 -41 -100 -17 -47 -38 -98 -46 -113 -8 -16 -14 -43
-14 -60 -1 -18 -7 -43 -15 -57 -8 -14 -14 -39 -15 -56 0 -17 -7 -48 -15 -67
-8 -20 -15 -52 -15 -71 0 -20 -7 -53 -14 -73 -9 -22 -17 -88 -19 -153 -3 -63
-11 -164 -18 -225 -11 -95 -10 -136 4 -295 10 -102 17 -217 17 -256 0 -44 6
-83 15 -100 8 -16 15 -47 15 -69 1 -22 7 -58 15 -80 8 -22 15 -53 15 -70 0
-16 7 -41 15 -55 8 -14 14 -40 15 -58 0 -18 6 -43 14 -55 8 -12 17 -38 21 -57
7 -32 45 -124 66 -160 5 -8 12 -22 14 -30 25 -69 148 -275 208 -347 54 -66
128 -141 198 -202 103 -89 117 -101 142 -111 28 -13 55 -30 89 -57 15 -12 54
-33 85 -48 32 -14 67 -31 77 -37 73 -40 266 -97 421 -123 44 -7 93 -18 108
-24 16 -6 83 -11 150 -12 67 -1 169 -4 225 -8 95 -5 105 -8 123 -31 11 -14 37
-45 59 -70 55 -64 68 -79 130 -156 30 -37 82 -99 115 -138 34 -39 71 -84 83
-100 12 -15 50 -60 84 -99 35 -38 81 -93 103 -121 22 -29 69 -86 105 -129 l65
-76 429 -1 430 0 -30 32 c-16 17 -65 70 -110 117 -44 47 -107 115 -139 151
-32 36 -113 124 -180 195 -67 72 -168 182 -225 245 -57 63 -106 117 -109 120
-3 3 -39 40 -80 82 -89 92 -91 111 -11 146 28 12 56 22 64 22 7 0 19 7 26 15
7 8 16 15 21 15 5 0 28 12 52 27 58 38 80 51 97 59 60 29 330 271 330 296 0 4
8 16 18 26 45 46 222 333 222 362 0 5 11 31 25 58 14 28 25 56 25 64 0 8 9 31
19 51 11 21 23 57 26 80 4 23 11 48 16 57 12 22 39 142 39 174 0 15 6 39 14
54 25 48 39 265 39 587 0 171 -3 337 -6 370 -4 33 -10 89 -13 125 -4 36 -13
77 -20 92 -8 15 -14 37 -14 50 0 13 -9 57 -20 98 -10 41 -24 95 -30 120 -7 25
-18 59 -25 75 -7 17 -16 41 -20 55 -28 94 -123 274 -220 417 -69 103 -272 310
-360 368 -84 56 -206 125 -220 125 -7 0 -18 7 -25 15 -7 8 -19 15 -26 15 -7 0
-37 11 -66 24 -74 33 -143 56 -208 67 -30 6 -63 14 -72 19 -10 6 -31 10 -47
10 -17 0 -32 4 -35 8 -5 9 -156 25 -206 23 -13 -1 -79 6 -146 14 -67 8 -124
14 -126 14 -1 -1 -28 -5 -58 -10z m264 -548 c17 -6 63 -14 101 -19 39 -5 84
-14 100 -20 17 -6 53 -18 80 -26 135 -40 259 -120 373 -241 46 -48 95 -107
109 -129 14 -23 32 -52 42 -66 9 -14 30 -54 45 -90 16 -36 37 -84 48 -108 10
-23 21 -56 25 -72 3 -17 10 -33 14 -36 5 -3 9 -16 9 -29 0 -13 4 -26 9 -29 5
-3 12 -32 15 -63 4 -32 13 -74 21 -93 51 -128 52 -896 1 -1045 -8 -22 -17 -63
-20 -91 -7 -58 -61 -233 -76 -248 -6 -6 -10 -16 -10 -24 0 -7 -8 -32 -19 -55
-10 -23 -20 -47 -22 -52 -11 -29 -91 -146 -146 -211 -54 -65 -97 -105 -188
-176 -40 -32 -215 -118 -238 -118 -13 0 -29 -6 -35 -12 -7 -7 -45 -19 -85 -26
-40 -7 -103 -18 -142 -25 -88 -15 -318 -15 -410 0 -38 7 -101 17 -140 24 -38
6 -77 18 -86 25 -8 8 -27 14 -41 14 -14 0 -56 16 -94 36 -38 21 -82 44 -99 52
-16 9 -46 30 -65 48 -19 18 -48 43 -65 56 -16 13 -43 38 -60 57 -16 19 -42 48
-58 65 -15 17 -44 58 -64 91 -20 33 -41 67 -48 75 -6 8 -20 35 -30 60 -10 25
-25 52 -32 61 -7 8 -13 25 -13 36 0 12 -7 34 -15 50 -8 15 -22 55 -31 88 -9
33 -23 79 -30 103 -8 23 -14 63 -14 88 0 25 -5 55 -12 67 -15 29 -37 281 -38
442 -1 163 17 394 35 460 7 28 18 77 23 110 6 33 15 78 22 100 6 22 17 60 23
85 7 25 18 55 25 67 6 12 12 29 12 37 0 26 89 192 141 263 54 74 185 213 201
213 5 0 18 10 27 22 32 39 262 158 306 158 9 0 26 5 38 12 23 12 41 15 142 23
33 3 76 9 95 14 47 12 306 13 344 2z"/>
</g>
</svg>
